<?xml version="1.0" encoding="UTF-8"?>
<svg version="1.1" xmlns="http://www.w3.org/2000/svg" width="960" height="960">
<path d="M0 0 C316.8 0 633.6 0 960 0 C960 316.8 960 633.6 960 960 C643.2 960 326.4 960 0 960 C0 643.2 0 326.4 0 0 Z " fill="#FFFFFD" transform="translate(0,0)"/>
<path d="M0 0 C277.2 0 554.4 0 840 0 C840 9.9 840 19.8 840 30 C849.9 30 859.8 30 870 30 C870 69.6 870 109.2 870 150 C879.9 150 889.8 150 900 150 C900 209.4 900 268.8 900 330 C890.1 330 880.2 330 870 330 C870 468.6 870 607.2 870 750 C850.2 750 830.4 750 810 750 C810 611.4 810 472.8 810 330 C770.4 330 730.8 330 690 330 C690 320.1 690 310.2 690 300 C680.1 300 670.2 300 660 300 C660 290.1 660 280.2 660 270 C669.9 270 679.8 270 690 270 C690 260.1 690 250.2 690 240 C680.1 240 670.2 240 660 240 C660 230.1 660 220.2 660 210 C669.9 210 679.8 210 690 210 C690 190.2 690 170.4 690 150 C729.6 150 769.2 150 810 150 C810 120.3 810 90.6 810 60 C552.6 60 295.2 60 30 60 C30 89.7 30 119.4 30 150 C10.2 150 -9.6 150 -30 150 C-30 110.4 -30 70.8 -30 30 C-20.1 30 -10.2 30 0 30 C0 20.1 0 10.2 0 0 Z " fill="#66CC66" transform="translate(60,30)"/>
<path d="M0 0 C19.8 0 39.6 0 60 0 C60 168.3 60 336.6 60 510 C307.5 510 555 510 810 510 C810 500.1 810 490.2 810 480 C800.1 480 790.2 480 780 480 C780 470.1 780 460.2 780 450 C819.6 450 859.2 450 900 450 C900 489.6 900 529.2 900 570 C890.1 570 880.2 570 870 570 C870 560.1 870 550.2 870 540 C860.1 540 850.2 540 840 540 C840 549.9 840 559.8 840 570 C572.7 570 305.4 570 30 570 C30 560.1 30 550.2 30 540 C20.1 540 10.2 540 0 540 C0 361.8 0 183.6 0 0 Z " fill="#666666" transform="translate(30,360)"/>
<path d="M0 0 C316.8 0 633.6 0 960 0 C960 59.4 960 118.8 960 180 C950.1 180 940.2 180 930 180 C930 140.4 930 100.8 930 60 C920.1 60 910.2 60 900 60 C900 50.1 900 40.2 900 30 C622.8 30 345.6 30 60 30 C60 39.9 60 49.8 60 60 C50.1 60 40.2 60 30 60 C30 99.6 30 139.2 30 180 C89.4 180 148.8 180 210 180 C210 199.8 210 219.6 210 240 C219.9 240 229.8 240 240 240 C240 249.9 240 259.8 240 270 C249.9 270 259.8 270 270 270 C270 279.9 270 289.8 270 300 C260.1 300 250.2 300 240 300 C240 309.9 240 319.8 240 330 C230.1 330 220.2 330 210 330 C210 339.9 210 349.8 210 360 C140.7 360 71.4 360 0 360 C0 241.2 0 122.4 0 0 Z " fill="#66CC66" transform="translate(0,0)"/>
<path d="M0 0 C9.9 0 19.8 0 30 0 C30 178.2 30 356.4 30 540 C39.9 540 49.8 540 60 540 C60 549.9 60 559.8 60 570 C327.3 570 594.6 570 870 570 C870 560.1 870 550.2 870 540 C879.9 540 889.8 540 900 540 C900 549.9 900 559.8 900 570 C909.9 570 919.8 570 930 570 C930 381.9 930 193.8 930 0 C939.9 0 949.8 0 960 0 C960 198 960 396 960 600 C643.2 600 326.4 600 0 600 C0 402 0 204 0 0 Z " fill="#FFFFFD" transform="translate(0,360)"/>
<path d="M0 0 C277.2 0 554.4 0 840 0 C840 9.9 840 19.8 840 30 C849.9 30 859.8 30 870 30 C870 69.6 870 109.2 870 150 C850.2 150 830.4 150 810 150 C810 120.3 810 90.6 810 60 C552.6 60 295.2 60 30 60 C30 89.7 30 119.4 30 150 C10.2 150 -9.6 150 -30 150 C-30 110.4 -30 70.8 -30 30 C-20.1 30 -10.2 30 0 30 C0 20.1 0 10.2 0 0 Z " fill="#666666" transform="translate(60,30)"/>
<path d="M0 0 C316.8 0 633.6 0 960 0 C960 59.4 960 118.8 960 180 C950.1 180 940.2 180 930 180 C930 140.4 930 100.8 930 60 C920.1 60 910.2 60 900 60 C900 50.1 900 40.2 900 30 C622.8 30 345.6 30 60 30 C60 39.9 60 49.8 60 60 C50.1 60 40.2 60 30 60 C30 99.6 30 139.2 30 180 C20.1 180 10.2 180 0 180 C0 120.6 0 61.2 0 0 Z " fill="#FFFFFD" transform="translate(0,0)"/>
<path d="M0 0 C19.8 0 39.6 0 60 0 C60 29.7 60 59.4 60 90 C89.7 90 119.4 90 150 90 C150 109.8 150 129.6 150 150 C120.3 150 90.6 150 60 150 C60 179.7 60 209.4 60 240 C40.2 240 20.4 240 0 240 C0 210.3 0 180.6 0 150 C-29.7 150 -59.4 150 -90 150 C-90 130.2 -90 110.4 -90 90 C-60.3 90 -30.6 90 0 90 C0 60.3 0 30.6 0 0 Z " fill="#0000FF" transform="translate(660,390)"/>
<path d="M0 0 C19.8 0 39.6 0 60 0 C60 138.6 60 277.2 60 420 C40.2 420 20.4 420 0 420 C0 281.4 0 142.8 0 0 Z " fill="#666666" transform="translate(870,360)"/>
<path d="M0 0 C49.5 0 99 0 150 0 C150 39.6 150 79.2 150 120 C100.5 120 51 120 0 120 C0 80.4 0 40.8 0 0 Z " fill="#FFFFFD" transform="translate(780,210)"/>
<path d="M0 0 C49.5 0 99 0 150 0 C150 39.6 150 79.2 150 120 C100.5 120 51 120 0 120 C0 80.4 0 40.8 0 0 Z " fill="#FFFFFD" transform="translate(30,210)"/>
<path d="M0 0 C9.9 0 19.8 0 30 0 C30 19.8 30 39.6 30 60 C0.3 60 -29.4 60 -60 60 C-60 89.7 -60 119.4 -60 150 C-79.8 150 -99.6 150 -120 150 C-120 140.1 -120 130.2 -120 120 C-110.1 120 -100.2 120 -90 120 C-90 90.3 -90 60.6 -90 30 C-60.3 30 -30.6 30 0 30 C0 20.1 0 10.2 0 0 Z " fill="#CCCCCC" transform="translate(810,510)"/>
<path d="M0 0 C9.9 0 19.8 0 30 0 C30 49.5 30 99 30 150 C20.1 150 10.2 150 0 150 C0 120.3 0 90.6 0 60 C-9.9 60 -19.8 60 -30 60 C-30 50.1 -30 40.2 -30 30 C-20.1 30 -10.2 30 0 30 C0 20.1 0 10.2 0 0 Z " fill="#66CC66" transform="translate(540,660)"/>
<path d="M0 0 C9.9 0 19.8 0 30 0 C30 9.9 30 19.8 30 30 C39.9 30 49.8 30 60 30 C60 39.9 60 49.8 60 60 C50.1 60 40.2 60 30 60 C30 89.7 30 119.4 30 150 C20.1 150 10.2 150 0 150 C0 100.5 0 51 0 0 Z " fill="#66CC66" transform="translate(420,660)"/>
<path d="M0 0 C9.9 0 19.8 0 30 0 C30 29.7 30 59.4 30 90 C20.1 90 10.2 90 0 90 C0 109.8 0 129.6 0 150 C-9.9 150 -19.8 150 -30 150 C-30 120.3 -30 90.6 -30 60 C-20.1 60 -10.2 60 0 60 C0 40.2 0 20.4 0 0 Z " fill="#000000" transform="translate(510,210)"/>
<path d="M0 0 C9.9 0 19.8 0 30 0 C30 29.7 30 59.4 30 90 C20.1 90 10.2 90 0 90 C0 109.8 0 129.6 0 150 C-9.9 150 -19.8 150 -30 150 C-30 120.3 -30 90.6 -30 60 C-20.1 60 -10.2 60 0 60 C0 40.2 0 20.4 0 0 Z " fill="#000000" transform="translate(420,210)"/>
<path d="M0 0 C9.9 0 19.8 0 30 0 C30 9.9 30 19.8 30 30 C39.9 30 49.8 30 60 30 C60 39.9 60 49.8 60 60 C30.3 60 0.6 60 -30 60 C-30 50.1 -30 40.2 -30 30 C-20.1 30 -10.2 30 0 30 C0 20.1 0 10.2 0 0 Z " fill="#66CC66" transform="translate(840,240)"/>
<path d="M0 0 C29.7 0 59.4 0 90 0 C90 9.9 90 19.8 90 30 C80.1 30 70.2 30 60 30 C60 39.9 60 49.8 60 60 C50.1 60 40.2 60 30 60 C30 50.1 30 40.2 30 30 C20.1 30 10.2 30 0 30 C0 20.1 0 10.2 0 0 Z " fill="#66CC66" transform="translate(60,240)"/>
<path d="M0 0 C29.7 0 59.4 0 90 0 C90 9.9 90 19.8 90 30 C60.3 30 30.6 30 0 30 C0 20.1 0 10.2 0 0 Z " fill="#66CC66" transform="translate(270,780)"/>
<path d="M0 0 C9.9 0 19.8 0 30 0 C30 29.7 30 59.4 30 90 C20.1 90 10.2 90 0 90 C0 60.3 0 30.6 0 0 Z " fill="#66CC66" transform="translate(120,690)"/>
<path d="M0 0 C29.7 0 59.4 0 90 0 C90 9.9 90 19.8 90 30 C60.3 30 30.6 30 0 30 C0 20.1 0 10.2 0 0 Z " fill="#66CC66" transform="translate(300,660)"/>
<path d="M0 0 C19.8 0 39.6 0 60 0 C60 9.9 60 19.8 60 30 C40.2 30 20.4 30 0 30 C0 20.1 0 10.2 0 0 Z " fill="#DDDDDD" transform="translate(870,780)"/>
<path d="M0 0 C19.8 0 39.6 0 60 0 C60 9.9 60 19.8 60 30 C40.2 30 20.4 30 0 30 C0 20.1 0 10.2 0 0 Z " fill="#66CC66" transform="translate(150,780)"/>
<path d="M0 0 C19.8 0 39.6 0 60 0 C60 9.9 60 19.8 60 30 C40.2 30 20.4 30 0 30 C0 20.1 0 10.2 0 0 Z " fill="#66CC66" transform="translate(300,720)"/>
<path d="M0 0 C19.8 0 39.6 0 60 0 C60 9.9 60 19.8 60 30 C40.2 30 20.4 30 0 30 C0 20.1 0 10.2 0 0 Z " fill="#66CC66" transform="translate(150,660)"/>
<path d="M0 0 C9.9 0 19.8 0 30 0 C30 19.8 30 39.6 30 60 C20.1 60 10.2 60 0 60 C0 40.2 0 20.4 0 0 Z " fill="#CCCCCC" transform="translate(720,420)"/>
<path d="M0 0 C9.9 0 19.8 0 30 0 C30 9.9 30 19.8 30 30 C20.1 30 10.2 30 0 30 C0 20.1 0 10.2 0 0 Z " fill="#DDDDDD" transform="translate(30,900)"/>
<path d="M0 0 C9.9 0 19.8 0 30 0 C30 9.9 30 19.8 30 30 C20.1 30 10.2 30 0 30 C0 20.1 0 10.2 0 0 Z " fill="#66CC66" transform="translate(360,750)"/>
<path d="M0 0 C9.9 0 19.8 0 30 0 C30 9.9 30 19.8 30 30 C20.1 30 10.2 30 0 30 C0 20.1 0 10.2 0 0 Z " fill="#66CC66" transform="translate(210,750)"/>
<path d="M0 0 C9.9 0 19.8 0 30 0 C30 9.9 30 19.8 30 30 C20.1 30 10.2 30 0 30 C0 20.1 0 10.2 0 0 Z " fill="#66CC66" transform="translate(480,720)"/>
<path d="M0 0 C9.9 0 19.8 0 30 0 C30 9.9 30 19.8 30 30 C20.1 30 10.2 30 0 30 C0 20.1 0 10.2 0 0 Z " fill="#66CC66" transform="translate(270,690)"/>
<path d="M0 0 C9.9 0 19.8 0 30 0 C30 9.9 30 19.8 30 30 C20.1 30 10.2 30 0 30 C0 20.1 0 10.2 0 0 Z " fill="#66CC66" transform="translate(210,690)"/>
<path d="M0 0 C9.9 0 19.8 0 30 0 C30 9.9 30 19.8 30 30 C20.1 30 10.2 30 0 30 C0 20.1 0 10.2 0 0 Z " fill="#66CC66" transform="translate(660,300)"/>
<path d="M0 0 C9.9 0 19.8 0 30 0 C30 9.9 30 19.8 30 30 C20.1 30 10.2 30 0 30 C0 20.1 0 10.2 0 0 Z " fill="#66CC66" transform="translate(600,300)"/>
<path d="M0 0 C9.9 0 19.8 0 30 0 C30 9.9 30 19.8 30 30 C20.1 30 10.2 30 0 30 C0 20.1 0 10.2 0 0 Z " fill="#66CC66" transform="translate(330,300)"/>
<path d="M0 0 C9.9 0 19.8 0 30 0 C30 9.9 30 19.8 30 30 C20.1 30 10.2 30 0 30 C0 20.1 0 10.2 0 0 Z " fill="#66CC66" transform="translate(270,300)"/>
<path d="M0 0 C9.9 0 19.8 0 30 0 C30 9.9 30 19.8 30 30 C20.1 30 10.2 30 0 30 C0 20.1 0 10.2 0 0 Z " fill="#66CC66" transform="translate(690,270)"/>
<path d="M0 0 C9.9 0 19.8 0 30 0 C30 9.9 30 19.8 30 30 C20.1 30 10.2 30 0 30 C0 20.1 0 10.2 0 0 Z " fill="#66CC66" transform="translate(630,270)"/>
<path d="M0 0 C9.9 0 19.8 0 30 0 C30 9.9 30 19.8 30 30 C20.1 30 10.2 30 0 30 C0 20.1 0 10.2 0 0 Z " fill="#66CC66" transform="translate(300,270)"/>
<path d="M0 0 C9.9 0 19.8 0 30 0 C30 9.9 30 19.8 30 30 C20.1 30 10.2 30 0 30 C0 20.1 0 10.2 0 0 Z " fill="#FFFFFD" transform="translate(210,270)"/>
<path d="M0 0 C9.9 0 19.8 0 30 0 C30 9.9 30 19.8 30 30 C20.1 30 10.2 30 0 30 C0 20.1 0 10.2 0 0 Z " fill="#66CC66" transform="translate(660,240)"/>
<path d="M0 0 C9.9 0 19.8 0 30 0 C30 9.9 30 19.8 30 30 C20.1 30 10.2 30 0 30 C0 20.1 0 10.2 0 0 Z " fill="#66CC66" transform="translate(600,240)"/>
<path d="M0 0 C9.9 0 19.8 0 30 0 C30 9.9 30 19.8 30 30 C20.1 30 10.2 30 0 30 C0 20.1 0 10.2 0 0 Z " fill="#66CC66" transform="translate(330,240)"/>
<path d="M0 0 C9.9 0 19.8 0 30 0 C30 9.9 30 19.8 30 30 C20.1 30 10.2 30 0 30 C0 20.1 0 10.2 0 0 Z " fill="#66CC66" transform="translate(270,240)"/>
<path d="M0 0 C9.9 0 19.8 0 30 0 C30 9.9 30 19.8 30 30 C20.1 30 10.2 30 0 30 C0 20.1 0 10.2 0 0 Z " fill="#DDDDDD" transform="translate(900,30)"/>
<path d="M0 0 C9.9 0 19.8 0 30 0 C30 9.9 30 19.8 30 30 C20.1 30 10.2 30 0 30 C0 20.1 0 10.2 0 0 Z " fill="#DDDDDD" transform="translate(30,30)"/>
</svg>
